<mxfile host="app.diagrams.net" agent="Mozilla/5.0 (Windows NT 10.0; Win64; x64) AppleWebKit/537.36 (KHTML, like Gecko) Chrome/129.0.0.0 Safari/537.36" version="24.7.16">
  <diagram name="Page-1" id="Ctjg0No3zUCwtpp85kTk">
    <mxGraphModel grid="1" page="1" gridSize="10" guides="1" tooltips="1" connect="1" arrows="1" fold="1" pageScale="1" pageWidth="1654" pageHeight="2336" math="0" shadow="0">
      <root>
        <mxCell id="0" />
        <mxCell id="1" parent="0" />
        <mxCell id="KuUxCCZHSnEd986gLyKA-1" value="Student" style="swimlane;fontStyle=1;align=center;verticalAlign=top;childLayout=stackLayout;horizontal=1;startSize=26;horizontalStack=0;resizeParent=1;resizeParentMax=0;resizeLast=0;collapsible=1;marginBottom=0;whiteSpace=wrap;html=1;" vertex="1" parent="1">
          <mxGeometry x="350" y="350" width="330" height="660" as="geometry">
            <mxRectangle x="385" y="350" width="80" height="30" as="alternateBounds" />
          </mxGeometry>
        </mxCell>
        <mxCell id="KuUxCCZHSnEd986gLyKA-2" value="- id: int&lt;div&gt;- name: string&lt;/div&gt;&lt;div&gt;- surname: string&lt;/div&gt;&lt;div&gt;- patronymic: string&lt;/div&gt;&lt;div&gt;- phone: string&lt;/div&gt;&lt;div&gt;- telegram: string&lt;/div&gt;&lt;div&gt;- email: string&lt;/div&gt;&lt;div&gt;- github: string&lt;/div&gt;" style="text;strokeColor=none;fillColor=none;align=left;verticalAlign=top;spacingLeft=4;spacingRight=4;overflow=hidden;rotatable=0;points=[[0,0.5],[1,0.5]];portConstraint=eastwest;whiteSpace=wrap;html=1;" vertex="1" parent="KuUxCCZHSnEd986gLyKA-1">
          <mxGeometry y="26" width="330" height="124" as="geometry" />
        </mxCell>
        <mxCell id="KuUxCCZHSnEd986gLyKA-3" value="" style="line;strokeWidth=1;fillColor=none;align=left;verticalAlign=middle;spacingTop=-1;spacingLeft=3;spacingRight=3;rotatable=0;labelPosition=right;points=[];portConstraint=eastwest;strokeColor=inherit;" vertex="1" parent="KuUxCCZHSnEd986gLyKA-1">
          <mxGeometry y="150" width="330" height="8" as="geometry" />
        </mxCell>
        <mxCell id="KuUxCCZHSnEd986gLyKA-4" value="&amp;lt;&amp;lt;constructor&amp;gt;&amp;gt;&lt;div&gt;+Student(name, surname, patronymic: string, id: int,&amp;nbsp;&lt;/div&gt;&lt;div&gt;phone, email, telegram, github: string): new&lt;/div&gt;&lt;div&gt;&amp;lt;&amp;lt;getters and setters&amp;gt;&amp;gt;&lt;/div&gt;&lt;div&gt;+id(id: integer)&lt;span style=&quot;white-space: pre;&quot;&gt;&#x9;&lt;/span&gt;&lt;span style=&quot;white-space: pre;&quot;&gt;&#x9;&lt;span style=&quot;white-space: pre;&quot;&gt;&#x9;&lt;/span&gt;&lt;span style=&quot;white-space: pre;&quot;&gt;&#x9;&lt;span style=&quot;white-space: pre;&quot;&gt;&#x9;&lt;/span&gt;&lt;/span&gt;&lt;/span&gt;get, set&lt;/div&gt;&lt;div&gt;+name: string&lt;span style=&quot;white-space: pre;&quot;&gt;&#x9;&lt;/span&gt;&lt;span style=&quot;white-space: pre;&quot;&gt;&#x9;&lt;span style=&quot;white-space: pre;&quot;&gt;&#x9;&lt;/span&gt;&lt;span style=&quot;white-space: pre;&quot;&gt;&#x9;&lt;span style=&quot;white-space: pre;&quot;&gt;&#x9;&lt;/span&gt;&lt;/span&gt;&lt;/span&gt;get&lt;/div&gt;&lt;div&gt;-name=(name: string)&lt;span style=&quot;white-space: pre;&quot;&gt;&#x9;&lt;/span&gt;&lt;span style=&quot;white-space: pre;&quot;&gt;&#x9;&lt;span style=&quot;white-space: pre;&quot;&gt;&#x9;&lt;/span&gt;&lt;/span&gt;set&lt;/div&gt;&lt;div&gt;+surname: string&lt;span style=&quot;white-space: pre;&quot;&gt;&#x9;&lt;/span&gt;&lt;span style=&quot;white-space: pre;&quot;&gt;&#x9;&lt;/span&gt;&lt;span style=&quot;white-space: pre;&quot;&gt;&#x9;&lt;span style=&quot;white-space: pre;&quot;&gt;&#x9;&lt;/span&gt;&lt;/span&gt;get&lt;/div&gt;&lt;div&gt;-surname(surname: string)&lt;span style=&quot;white-space: pre;&quot;&gt;&#x9;&lt;span style=&quot;white-space: pre;&quot;&gt;&#x9;&lt;/span&gt;&lt;/span&gt;set&lt;/div&gt;&lt;div&gt;+patronymic: string&lt;span style=&quot;white-space: pre;&quot;&gt;&#x9;&lt;/span&gt;&lt;span style=&quot;white-space: pre;&quot;&gt;&#x9;&lt;/span&gt;&lt;span style=&quot;white-space: pre;&quot;&gt;&#x9;&lt;span style=&quot;white-space: pre;&quot;&gt;&#x9;&lt;/span&gt;&lt;/span&gt;get&lt;/div&gt;&lt;div&gt;-patronymic=(patronymic:string)&lt;span style=&quot;white-space: pre;&quot;&gt;&#x9;&lt;/span&gt;set&lt;/div&gt;&lt;div&gt;+phone: string&lt;span style=&quot;white-space: pre;&quot;&gt;&#x9;&lt;/span&gt;&lt;span style=&quot;white-space: pre;&quot;&gt;&#x9;&lt;/span&gt;&lt;span style=&quot;white-space: pre;&quot;&gt;&#x9;&lt;/span&gt;&lt;span style=&quot;white-space: pre;&quot;&gt;&#x9;&lt;/span&gt;&lt;span style=&quot;white-space: pre;&quot;&gt;&#x9;&lt;/span&gt;get&lt;/div&gt;&lt;div&gt;-phone=(phone: string)&lt;span style=&quot;white-space: pre;&quot;&gt;&#x9;&lt;/span&gt;&lt;span style=&quot;white-space: pre;&quot;&gt;&#x9;&lt;/span&gt;&lt;span style=&quot;white-space: pre;&quot;&gt;&#x9;&lt;/span&gt;set&lt;/div&gt;&lt;div&gt;+telegram(telegram: string)&lt;span style=&quot;white-space: pre;&quot;&gt;&#x9;&lt;/span&gt;&lt;span style=&quot;white-space: pre;&quot;&gt;&#x9;&lt;/span&gt;get&lt;/div&gt;&lt;div&gt;-telegram=(telegram: string)&lt;span style=&quot;white-space: pre;&quot;&gt;&#x9;&lt;/span&gt;&lt;span style=&quot;white-space: pre;&quot;&gt;&#x9;&lt;/span&gt;set&lt;/div&gt;&lt;div&gt;+email: string&lt;span style=&quot;white-space: pre;&quot;&gt;&#x9;&lt;/span&gt;&lt;span style=&quot;white-space: pre;&quot;&gt;&#x9;&lt;/span&gt;&lt;span style=&quot;white-space: pre;&quot;&gt;&#x9;&lt;/span&gt;&lt;span style=&quot;white-space: pre;&quot;&gt;&#x9;&lt;/span&gt;&lt;span style=&quot;white-space: pre;&quot;&gt;&#x9;&lt;/span&gt;get&lt;/div&gt;&lt;div&gt;-email=(email: string)&lt;span style=&quot;white-space: pre;&quot;&gt;&#x9;&lt;/span&gt;&lt;span style=&quot;white-space: pre;&quot;&gt;&#x9;&lt;/span&gt;&lt;span style=&quot;white-space: pre;&quot;&gt;&#x9;&lt;/span&gt;set&lt;/div&gt;&lt;div&gt;+github: string&lt;span style=&quot;white-space: pre;&quot;&gt;&#x9;&lt;/span&gt;&lt;span style=&quot;white-space: pre;&quot;&gt;&#x9;&lt;/span&gt;&lt;span style=&quot;white-space: pre;&quot;&gt;&#x9;&lt;/span&gt;&lt;span style=&quot;white-space: pre;&quot;&gt;&#x9;&lt;/span&gt;&lt;span style=&quot;white-space: pre;&quot;&gt;&#x9;&lt;/span&gt;get&lt;/div&gt;&lt;div&gt;-github=(github: string)&lt;span style=&quot;white-space: pre;&quot;&gt;&#x9;&lt;/span&gt;&lt;span style=&quot;white-space: pre;&quot;&gt;&#x9;&lt;/span&gt;&lt;span style=&quot;white-space: pre;&quot;&gt;&#x9;&lt;/span&gt;set&lt;/div&gt;&lt;div&gt;&amp;lt;&amp;lt;interface&amp;gt;&amp;gt;&lt;/div&gt;&lt;div&gt;&lt;u&gt;#is_phone_valid?(phone_number: string): boolean&lt;/u&gt;&lt;/div&gt;&lt;div&gt;&lt;u&gt;#is_name_valid?(name_string: string): boolean&lt;/u&gt;&lt;/div&gt;&lt;div&gt;&lt;u&gt;#is_telegram_valid?(telegram_tag:string): boolean&lt;/u&gt;&lt;/div&gt;&lt;div&gt;&lt;u&gt;#is_email_valid?(email_address: string): boolean&lt;/u&gt;&lt;/div&gt;&lt;div&gt;&lt;u&gt;#is_github_valid?(github_url: string): boolean&lt;/u&gt;&lt;/div&gt;&lt;div&gt;-git_stated?(): boolean&lt;/div&gt;&lt;div&gt;-contacts_stated?(): boolean&lt;/div&gt;&lt;div&gt;+validate?(): boolean&lt;/div&gt;&lt;div&gt;+to_s(): string&lt;/div&gt;&lt;div&gt;+print_info():string&lt;/div&gt;&lt;div&gt;+set_contacts(phone, telegram, email: string)&lt;/div&gt;&lt;div&gt;&amp;nbsp;&lt;/div&gt;" style="text;strokeColor=none;fillColor=none;align=left;verticalAlign=top;spacingLeft=4;spacingRight=4;overflow=hidden;rotatable=0;points=[[0,0.5],[1,0.5]];portConstraint=eastwest;whiteSpace=wrap;html=1;" vertex="1" parent="KuUxCCZHSnEd986gLyKA-1">
          <mxGeometry y="158" width="330" height="502" as="geometry" />
        </mxCell>
      </root>
    </mxGraphModel>
  </diagram>
</mxfile>
